<?xml version="1.0" encoding="utf-8"?>
<!-- Generator: Adobe Illustrator 26.0.1, SVG Export Plug-In . SVG Version: 6.00 Build 0)  -->
<svg version="1.1" id="Layer_1" xmlns="http://www.w3.org/2000/svg" xmlns:xlink="http://www.w3.org/1999/xlink" x="0px" y="0px"
	 viewBox="0 0 878.93 229.13" style="enable-background:new 0 0 878.93 229.13;" xml:space="preserve">
<style type="text/css">
	.st0{fill:#2E65FF;}
	.st1{fill:#F0F3FF;}
	.st2{fill:#FFFFFF;}
	.st3{fill:#000921;}
</style>
<g>
	<g>
		<g>
			<g>
				<polygon class="st3" points="462.58,13.35 422.18,13.5 368.85,87.56 315.47,13.35 274.23,13.35 347.96,114.95 274.22,215.79 
					314.92,215.63 368.12,141.41 421.63,215.79 462.57,215.79 389.11,114.18 				"/>
				<path class="st3" d="M565.84,76.31c-12.26-7.84-26.36-11.81-41.92-11.81c-14.19,0-27.37,3.43-39.17,10.19
					c-11.7,6.72-21.07,16.04-27.85,27.72c-6.77,11.72-10.2,24.94-10.2,39.3c0,14.32,3.47,27.46,10.33,39.04
					c6.76,11.6,16.29,20.93,28.31,27.71c11.92,6.76,25.38,10.19,40.02,10.19c15.62,0,29.72-3.81,41.9-11.34
					c12.25-7.49,21.77-17.65,28.31-30.19l0.56-1.09l-27.29-12.1l-0.49,0.97c-4.05,7.98-9.82,14.27-17.15,18.7
					c-7.35,4.45-15.76,6.71-24.98,6.71c-9.13,0-17.41-2.15-24.6-6.38c-7.27-4.31-13-10.19-17.03-17.49
					c-2.28-4.05-3.93-8.6-4.91-13.56h120.46l0.11-1.02c1.74-15.84-0.52-30.58-6.71-43.82C587.4,94.75,578.07,84.07,565.84,76.31z
					 M489.17,110.31c2.69-3.38,6.91-8.04,11.76-11.04c6.88-4.27,14.62-6.44,22.99-6.44c8.38,0,15.99,1.97,22.61,5.85
					c6.68,3.96,12.05,9.4,15.98,16.18c2.17,3.68,3.79,7.7,4.95,12.28h-98.78v-6.72C476.83,120.12,484.28,116.44,489.17,110.31z"/>
				<rect x="621.59" y="13.35" class="st3" width="32.31" height="202.44"/>
				<path class="st3" d="M731.45,10.1l-32.29,10.1v47.21h-31.19v28.86h31.19v64.87c0,18.37,4.69,32.21,13.96,41.13
					c9.26,8.99,23.51,13.54,42.37,13.54h17.14V186.9h-17.14c-8.62,0-14.84-1.91-18.48-5.68c-3.68-3.75-5.55-10.01-5.55-18.62v-44.94
					c0-7.7-5.92-14.06-13.55-14.65v-6.74h54.72V67.41h-41.17V10.1z"/>
				<path class="st3" d="M878.06,66.25c-4.36-1.07-8.67-1.62-12.81-1.62c-4.72,0-9.35,0.71-13.78,2.1
					c-8.53,2.66-15.67,8.28-21.82,17.16c-0.98,1.42-1.92,2.99-3.04,5.06h-4.84V67.41h-32.29v148.41h32.29V132
					c0-8.85,2.48-16.55,7.36-22.89c4.83-6.29,11.58-10.62,20.07-12.87c3.76-0.99,7.76-1.49,11.87-1.49c5.16,0,10.69,0.79,16.42,2.35
					l1.45,0.39V66.47L878.06,66.25z"/>
			</g>
		</g>
		<g>
			<g>
				<g>
					<g>
						<g>
							<path class="st0" d="M165.42,114.59l54.8,31.64c-5.22,18.28-14.89,34.7-27.76,47.96l-54.52-31.45v62.99
								c-8.9,2.2-18.19,3.4-27.81,3.4c-9.52,0-18.76-1.15-27.62-3.35v-89.89h-8.71c-3.49,12.11-9.38,23.41-17.09,33.22
								c-7.66,9.81-17.23,18.19-28.24,24.55l-0.77,0.43C14.84,180.79,5.17,164.42,0,146.13l54.61-31.54L0,83.05
								c5.17-18.28,14.84-34.7,27.67-48.01l54.85,31.64V3.35C91.37,1.15,100.61,0,110.14,0c9.62,0,18.91,1.2,27.81,3.4v89.84h8.66
								c3.59-12.25,9.53-23.6,17.23-33.51c7.75-9.86,17.33-18.28,28.43-24.65l0.19-0.1c12.88,13.31,22.54,29.68,27.76,47.96
								L165.42,114.59z"/>
						</g>
					</g>
				</g>
			</g>
		</g>
	</g>
</g>
</svg>
