<?xml version="1.0" encoding="utf-8"?>
<!-- Generator: Adobe Illustrator 26.0.1, SVG Export Plug-In . SVG Version: 6.00 Build 0)  -->
<svg version="1.1" id="Layer_1" xmlns="http://www.w3.org/2000/svg" xmlns:xlink="http://www.w3.org/1999/xlink" x="0px" y="0px"
	 viewBox="0 0 496.21 516.27" style="enable-background:new 0 0 496.21 516.27;" xml:space="preserve">
<style type="text/css">
	.st0{fill:#2E65FF;}
	.st1{fill:#F0F3FF;}
	.st2{fill:#FFFFFF;}
	.st3{fill:#000921;}
</style>
<g>
	<g>
		<g>
			<g>
				<g>
					<g>
						<path class="st0" d="M372.72,258.19l123.48,71.29c-11.75,41.2-33.54,78.19-62.55,108.06l-122.84-70.86v141.93
							c-20.06,4.96-40.98,7.66-62.66,7.66c-21.46,0-42.28-2.59-62.22-7.55V306.18H166.3c-7.87,27.28-21.14,52.74-38.5,74.85
							c-17.26,22.11-38.83,40.98-63.63,55.32l-1.73,0.97C33.43,407.34,11.65,370.46,0,329.26l123.06-71.07L0,187.12
							c11.65-41.2,33.43-78.19,62.34-108.17l123.59,71.29V7.55C205.88,2.59,226.7,0,248.16,0c21.68,0,42.6,2.7,62.66,7.66v202.43
							h19.52c8.09-27.61,21.46-53.17,38.83-75.49c17.47-22.22,39.04-41.2,64.06-55.54l0.43-0.22
							c29.01,29.98,50.8,66.87,62.55,108.06L372.72,258.19z"/>
					</g>
				</g>
			</g>
		</g>
	</g>
</g>
</svg>
